ffmpeg started on 2026-01-13 at 10:32:12
Report written to "D:\Convert\FFMetrics\reports\psnr_report-6.txt"
Log level: 32
Command line:
ffmpeg -hide_banner -nostdin -r 24000/1001 -i "F:\\Convert\\files\\[DC] Make Heroine ga Oosugiru - 07_Telegram_HEVC(118).mkv" -r 24000/1001 -i "F:\\Convert\\files\\[DC] Make Heroine ga Oosugiru - 07_Telegram.mp4" -lavfi "[0:v]settb=AVTB,setpts=PTS-STARTPTS,format=pix_fmts=yuv420p10le,fps=24000/1001,scale=1920:1080:flags=lanczos:param0=3:out_range=limited:out_color_matrix=bt709:out_chroma_loc=left,setsar=1/1,setdar=(1920/1080)*(1/1),colorspace=format=yuv420p10:range=tv:primaries=bt709:trc=bt709:space=bt709:fast=0[main];[1:v]settb=AVTB,setpts=PTS-STARTPTS,format=pix_fmts=yuv420p,fps=24000/1001,scale=1920:1080:flags=lanczos:param0=3:out_range=limited:out_color_matrix=bt709:out_chroma_loc=left,setsar=1.000,setdar=1.778,colorspace=format=yuv420p:range=tv:primaries=bt709:trc=bt709:space=bt709:fast=0[ref];[main][ref]psnr=eof_action=endall:stats_file='D\\:/Convert/FFMetrics/logs/psnr_logfile-6.txt'" -f null -
Input #0, matroska,webm, from 'F:\Convert\files\[DC] Make Heroine ga Oosugiru - 07_Telegram_HEVC(118).mkv':
  Metadata:
    COMPATIBLE_BRANDS: isomiso2avc1mp41
    MAJOR_BRAND     : isom
    MINOR_VERSION   : 512
    ENCODER         : Lavf61.7.100
  Duration: 00:24:06.79, start: -0.021000, bitrate: 992 kb/s
  Stream #0:0: Video: hevc (Main 10), yuv420p10le(tv, bt709, progressive), 1920x1080 [SAR 1:1 DAR 16:9], 23.98 fps, 23.98 tbr, 1k tbn (default)
      Metadata:
        HANDLER_NAME    : VideoHandler
        VENDOR_ID       : [0][0][0][0]
        ENCODER         : Lavc61.19.100 libx265
        BPS             : 795823
        DURATION        : 00:24:06.569708333
        NUMBER_OF_FRAMES: 34683
        NUMBER_OF_BYTES : 143901720
        _STATISTICS_WRITING_APP: mkvpropedit v94.0 ('Initiate') 64-bit
        _STATISTICS_WRITING_DATE_UTC: 2026-01-12 15:31:50
        _STATISTICS_TAGS: BPS DURATION NUMBER_OF_FRAMES NUMBER_OF_BYTES
  Stream #0:1: Audio: aac (LC), 48000 Hz, stereo, fltp (default)
      Metadata:
        HANDLER_NAME    : SoundHandler
        VENDOR_ID       : [0][0][0][0]
        ENCODER         : Lavc61.19.100 aac
        BPS             : 193194
        DURATION        : 00:24:06.784000000
        NUMBER_OF_FRAMES: 67819
        NUMBER_OF_BYTES : 34938755
        _STATISTICS_WRITING_APP: mkvpropedit v94.0 ('Initiate') 64-bit
        _STATISTICS_WRITING_DATE_UTC: 2026-01-12 15:31:50
        _STATISTICS_TAGS: BPS DURATION NUMBER_OF_FRAMES NUMBER_OF_BYTES
Input #1, mov,mp4,m4a,3gp,3g2,mj2, from 'F:\Convert\files\[DC] Make Heroine ga Oosugiru - 07_Telegram.mp4':
  Metadata:
    major_brand     : isom
    minor_version   : 512
    compatible_brands: isomiso2avc1mp41
    encoder         : Lavf60.16.100
  Duration: 00:24:06.74, start: 0.000000, bitrate: 3764 kb/s
  Stream #1:0[0x1](und): Video: h264 (High) (avc1 / 0x31637661), yuv420p(tv, bt709, progressive), 1920x1080 [SAR 1:1 DAR 16:9], 3616 kb/s, 23.98 fps, 23.98 tbr, 24k tbn (default)
      Metadata:
        handler_name    : VideoHandler
        vendor_id       : [0][0][0][0]
        encoder         : Lavc60.31.102 h264_qsv
  Stream #1:1[0x2](und): Audio: aac (HE-AACv2) (mp4a / 0x6134706D), 48000 Hz, stereo, fltp, 144 kb/s (default)
      Metadata:
        handler_name    : SoundHandler
        vendor_id       : [0][0][0][0]
Stream mapping:
  Stream #0:0 (hevc) -> settb:default
  Stream #1:0 (h264) -> settb:default
  psnr:default -> Stream #0:0 (wrapped_avframe)
  Stream #0:1 -> #0:1 (aac (native) -> pcm_s16le (native))
Output #0, null, to 'pipe:':
  Metadata:
    COMPATIBLE_BRANDS: isomiso2avc1mp41
    MAJOR_BRAND     : isom
    MINOR_VERSION   : 512
    encoder         : Lavf61.7.100
  Stream #0:0: Video: wrapped_avframe, yuv420p10le(tv, bt709, progressive), 1920x1080 [SAR 1:1 DAR 16:9], q=2-31, 200 kb/s, 23.98 fps, 23.98 tbn
      Metadata:
        encoder         : Lavc61.19.100 wrapped_avframe
  Stream #0:1: Audio: pcm_s16le, 48000 Hz, stereo, s16, 1536 kb/s (default)
      Metadata:
        HANDLER_NAME    : SoundHandler
        VENDOR_ID       : [0][0][0][0]
        _STATISTICS_TAGS: BPS DURATION NUMBER_OF_FRAMES NUMBER_OF_BYTES
        BPS             : 193194
        DURATION        : 00:24:06.784000000
        NUMBER_OF_FRAMES: 67819
        NUMBER_OF_BYTES : 34938755
        _STATISTICS_WRITING_APP: mkvpropedit v94.0 ('Initiate') 64-bit
        _STATISTICS_WRITING_DATE_UTC: 2026-01-12 15:31:50
        encoder         : Lavc61.19.100 pcm_s16le
frame=  102 fps=0.0 q=-0.0 size=N/A time=00:00:04.25 bitrate=N/A speed=8.23x    frame=  243 fps=237 q=-0.0 size=N/A time=00:00:10.13 bitrate=N/A speed=9.87x    frame=  422 fps=272 q=-0.0 size=N/A time=00:00:17.60 bitrate=N/A speed=11.3x    frame=  579 fps=281 q=-0.0 size=N/A time=00:00:24.14 bitrate=N/A speed=11.7x    frame=  733 fps=283 q=-0.0 size=N/A time=00:00:30.57 bitrate=N/A speed=11.8x    frame=  886 fps=286 q=-0.0 size=N/A time=00:00:36.95 bitrate=N/A speed=11.9x    frame=  994 fps=275 q=-0.0 size=N/A time=00:00:41.45 bitrate=N/A speed=11.5x    frame= 1126 fps=273 q=-0.0 size=N/A time=00:00:46.96 bitrate=N/A speed=11.4x    frame= 1257 fps=271 q=-0.0 size=N/A time=00:00:52.42 bitrate=N/A speed=11.3x    frame= 1402 fps=272 q=-0.0 size=N/A time=00:00:58.47 bitrate=N/A speed=11.3x    frame= 1531 fps=270 q=-0.0 size=N/A time=00:01:03.85 bitrate=N/A speed=11.3x    frame= 1652 fps=267 q=-0.0 size=N/A time=00:01:08.90 bitrate=N/A speed=11.1x    frame= 1762 fps=263 q=-0.0 size=N/A time=00:01:13.49 bitrate=N/A speed=  11x    frame= 1896 fps=263 q=-0.0 size=N/A time=00:01:19.07 bitrate=N/A speed=  11x    frame= 2033 fps=263 q=-0.0 size=N/A time=00:01:24.79 bitrate=N/A speed=  11x    frame= 2120 fps=257 q=-0.0 size=N/A time=00:01:28.42 bitrate=N/A speed=10.7x    frame= 2251 fps=257 q=-0.0 size=N/A time=00:01:33.88 bitrate=N/A speed=10.7x    frame= 2381 fps=256 q=-0.0 size=N/A time=00:01:39.30 bitrate=N/A speed=10.7x    frame= 2475 fps=252 q=-0.0 size=N/A time=00:01:43.22 bitrate=N/A speed=10.5x    frame= 2585 fps=251 q=-0.0 size=N/A time=00:01:47.81 bitrate=N/A speed=10.5x    frame= 2709 fps=250 q=-0.0 size=N/A time=00:01:52.98 bitrate=N/A speed=10.4x    frame= 2872 fps=253 q=-0.0 size=N/A time=00:01:59.78 bitrate=N/A speed=10.6x    frame= 3026 fps=255 q=-0.0 size=N/A time=00:02:06.20 bitrate=N/A speed=10.6x    frame= 3178 fps=257 q=-0.0 size=N/A time=00:02:12.54 bitrate=N/A speed=10.7x    frame= 3328 fps=258 q=-0.0 size=N/A time=00:02:18.80 bitrate=N/A speed=10.8x    frame= 3486 fps=260 q=-0.0 size=N/A time=00:02:25.39 bitrate=N/A speed=10.8x    frame= 3621 fps=260 q=-0.0 size=N/A time=00:02:31.02 bitrate=N/A speed=10.8x    frame= 3779 fps=261 q=-0.0 size=N/A time=00:02:37.61 bitrate=N/A speed=10.9x    frame= 3928 fps=263 q=-0.0 size=N/A time=00:02:43.83 bitrate=N/A speed=10.9x    frame= 4064 fps=262 q=-0.0 size=N/A time=00:02:49.50 bitrate=N/A speed=10.9x    frame= 4203 fps=263 q=-0.0 size=N/A time=00:02:55.30 bitrate=N/A speed=10.9x    frame= 4352 fps=263 q=-0.0 size=N/A time=00:03:01.51 bitrate=N/A speed=  11x    frame= 4462 fps=262 q=-0.0 size=N/A time=00:03:06.10 bitrate=N/A speed=10.9x    frame= 4625 fps=263 q=-0.0 size=N/A time=00:03:12.90 bitrate=N/A speed=  11x    frame= 4765 fps=264 q=-0.0 size=N/A time=00:03:18.74 bitrate=N/A speed=  11x    frame= 4920 fps=265 q=-0.0 size=N/A time=00:03:25.20 bitrate=N/A speed=  11x    frame= 5069 fps=266 q=-0.0 size=N/A time=00:03:31.41 bitrate=N/A speed=11.1x    frame= 5212 fps=266 q=-0.0 size=N/A time=00:03:37.38 bitrate=N/A speed=11.1x    frame= 5361 fps=266 q=-0.0 size=N/A time=00:03:43.59 bitrate=N/A speed=11.1x    frame= 5517 fps=267 q=-0.0 size=N/A time=00:03:50.10 bitrate=N/A speed=11.1x    frame= 5670 fps=268 q=-0.0 size=N/A time=00:03:56.48 bitrate=N/A speed=11.2x    frame= 5837 fps=269 q=-0.0 size=N/A time=00:04:03.45 bitrate=N/A speed=11.2x    frame= 6003 fps=271 q=-0.0 size=N/A time=00:04:10.37 bitrate=N/A speed=11.3x    frame= 6168 fps=272 q=-0.0 size=N/A time=00:04:17.25 bitrate=N/A speed=11.3x    frame= 6342 fps=273 q=-0.0 size=N/A time=00:04:24.51 bitrate=N/A speed=11.4x    frame= 6500 fps=274 q=-0.0 size=N/A time=00:04:31.10 bitrate=N/A speed=11.4x    frame= 6677 fps=275 q=-0.0 size=N/A time=00:04:38.48 bitrate=N/A speed=11.5x    frame= 6853 fps=277 q=-0.0 size=N/A time=00:04:45.82 bitrate=N/A speed=11.5x    frame= 7006 fps=277 q=-0.0 size=N/A time=00:04:52.20 bitrate=N/A speed=11.6x    frame= 7123 fps=276 q=-0.0 size=N/A time=00:04:57.08 bitrate=N/A speed=11.5x    frame= 7268 fps=276 q=-0.0 size=N/A time=00:05:03.13 bitrate=N/A speed=11.5x    frame= 7426 fps=277 q=-0.0 size=N/A time=00:05:09.72 bitrate=N/A speed=11.5x    frame= 7568 fps=277 q=-0.0 size=N/A time=00:05:15.64 bitrate=N/A speed=11.5x    frame= 7663 fps=275 q=-0.0 size=N/A time=00:05:19.61 bitrate=N/A speed=11.5x    frame= 7784 fps=274 q=-0.0 size=N/A time=00:05:24.65 bitrate=N/A speed=11.4x    frame= 7927 fps=274 q=-0.0 size=N/A time=00:05:30.62 bitrate=N/A speed=11.4x    frame= 8082 fps=275 q=-0.0 size=N/A time=00:05:37.08 bitrate=N/A speed=11.5x    frame= 8238 fps=275 q=-0.0 size=N/A time=00:05:43.59 bitrate=N/A speed=11.5x    frame= 8397 fps=276 q=-0.0 size=N/A time=00:05:50.22 bitrate=N/A speed=11.5x    frame= 8572 fps=277 q=-0.0 size=N/A time=00:05:57.52 bitrate=N/A speed=11.5x    frame= 8732 fps=277 q=-0.0 size=N/A time=00:06:04.19 bitrate=N/A speed=11.6x    frame= 8867 fps=277 q=-0.0 size=N/A time=00:06:09.82 bitrate=N/A speed=11.6x    frame= 9017 fps=277 q=-0.0 size=N/A time=00:06:16.08 bitrate=N/A speed=11.6x    frame= 9170 fps=278 q=-0.0 size=N/A time=00:06:22.46 bitrate=N/A speed=11.6x    frame= 9331 fps=278 q=-0.0 size=N/A time=00:06:29.18 bitrate=N/A speed=11.6x    frame= 9499 fps=279 q=-0.0 size=N/A time=00:06:36.18 bitrate=N/A speed=11.6x    frame= 9666 fps=280 q=-0.0 size=N/A time=00:06:43.15 bitrate=N/A speed=11.7x    frame= 9827 fps=280 q=-0.0 size=N/A time=00:06:49.86 bitrate=N/A speed=11.7x    frame= 9980 fps=280 q=-0.0 size=N/A time=00:06:56.24 bitrate=N/A speed=11.7x    frame=10142 fps=281 q=-0.0 size=N/A time=00:07:03.00 bitrate=N/A speed=11.7x    frame=10315 fps=281 q=-0.0 size=N/A time=00:07:10.22 bitrate=N/A speed=11.7x    frame=10485 fps=282 q=-0.0 size=N/A time=00:07:17.31 bitrate=N/A speed=11.8x    frame=10639 fps=282 q=-0.0 size=N/A time=00:07:23.73 bitrate=N/A speed=11.8x    frame=10810 fps=283 q=-0.0 size=N/A time=00:07:30.86 bitrate=N/A speed=11.8x    frame=10974 fps=283 q=-0.0 size=N/A time=00:07:37.70 bitrate=N/A speed=11.8x    frame=11132 fps=284 q=-0.0 size=N/A time=00:07:44.29 bitrate=N/A speed=11.8x    frame=11291 fps=284 q=-0.0 size=N/A time=00:07:50.92 bitrate=N/A speed=11.9x    frame=11477 fps=285 q=-0.0 size=N/A time=00:07:58.68 bitrate=N/A speed=11.9x    frame=11616 fps=285 q=-0.0 size=N/A time=00:08:04.48 bitrate=N/A speed=11.9x    frame=11761 fps=285 q=-0.0 size=N/A time=00:08:10.53 bitrate=N/A speed=11.9x    frame=11874 fps=284 q=-0.0 size=N/A time=00:08:15.24 bitrate=N/A speed=11.8x    frame=11995 fps=283 q=-0.0 size=N/A time=00:08:20.29 bitrate=N/A speed=11.8x    frame=12133 fps=283 q=-0.0 size=N/A time=00:08:26.04 bitrate=N/A speed=11.8x    frame=12281 fps=283 q=-0.0 size=N/A time=00:08:32.22 bitrate=N/A speed=11.8x    frame=12438 fps=284 q=-0.0 size=N/A time=00:08:38.76 bitrate=N/A speed=11.8x    frame=12619 fps=284 q=-0.0 size=N/A time=00:08:46.31 bitrate=N/A speed=11.9x    frame=12759 fps=284 q=-0.0 size=N/A time=00:08:52.15 bitrate=N/A speed=11.9x    frame=12931 fps=285 q=-0.0 size=N/A time=00:08:59.33 bitrate=N/A speed=11.9x    frame=13089 fps=285 q=-0.0 size=N/A time=00:09:05.92 bitrate=N/A speed=11.9x    frame=13264 fps=286 q=-0.0 size=N/A time=00:09:13.21 bitrate=N/A speed=11.9x    frame=13420 fps=286 q=-0.0 size=N/A time=00:09:19.72 bitrate=N/A speed=11.9x    frame=13594 fps=286 q=-0.0 size=N/A time=00:09:26.98 bitrate=N/A speed=11.9x    frame=13755 fps=287 q=-0.0 size=N/A time=00:09:33.69 bitrate=N/A speed=  12x    frame=13924 fps=287 q=-0.0 size=N/A time=00:09:40.74 bitrate=N/A speed=  12x    frame=14071 fps=287 q=-0.0 size=N/A time=00:09:46.87 bitrate=N/A speed=  12x    frame=14234 fps=287 q=-0.0 size=N/A time=00:09:53.67 bitrate=N/A speed=  12x    frame=14410 fps=288 q=-0.0 size=N/A time=00:10:01.01 bitrate=N/A speed=  12x    frame=14589 fps=288 q=-0.0 size=N/A time=00:10:08.48 bitrate=N/A speed=  12x    frame=14763 fps=289 q=-0.0 size=N/A time=00:10:15.74 bitrate=N/A speed=12.1x    frame=14922 fps=289 q=-0.0 size=N/A time=00:10:22.37 bitrate=N/A speed=12.1x    frame=15100 fps=290 q=-0.0 size=N/A time=00:10:29.79 bitrate=N/A speed=12.1x    frame=15264 fps=290 q=-0.0 size=N/A time=00:10:36.63 bitrate=N/A speed=12.1x    frame=15447 fps=291 q=-0.0 size=N/A time=00:10:44.26 bitrate=N/A speed=12.1x    frame=15614 fps=291 q=-0.0 size=N/A time=00:10:51.23 bitrate=N/A speed=12.1x    frame=15798 fps=291 q=-0.0 size=N/A time=00:10:58.90 bitrate=N/A speed=12.2x    frame=15976 fps=292 q=-0.0 size=N/A time=00:11:06.33 bitrate=N/A speed=12.2x    frame=16162 fps=293 q=-0.0 size=N/A time=00:11:14.09 bitrate=N/A speed=12.2x    frame=16304 fps=292 q=-0.0 size=N/A time=00:11:20.01 bitrate=N/A speed=12.2x    frame=16468 fps=293 q=-0.0 size=N/A time=00:11:26.85 bitrate=N/A speed=12.2x    frame=16630 fps=293 q=-0.0 size=N/A time=00:11:33.60 bitrate=N/A speed=12.2x    frame=16811 fps=293 q=-0.0 size=N/A time=00:11:41.15 bitrate=N/A speed=12.2x    frame=16978 fps=294 q=-0.0 size=N/A time=00:11:48.12 bitrate=N/A speed=12.2x    frame=17162 fps=294 q=-0.0 size=N/A time=00:11:55.79 bitrate=N/A speed=12.3x    frame=17337 fps=295 q=-0.0 size=N/A time=00:12:03.09 bitrate=N/A speed=12.3x    frame=17518 fps=295 q=-0.0 size=N/A time=00:12:10.64 bitrate=N/A speed=12.3x    frame=17682 fps=295 q=-0.0 size=N/A time=00:12:17.48 bitrate=N/A speed=12.3x    frame=17856 fps=296 q=-0.0 size=N/A time=00:12:24.74 bitrate=N/A speed=12.3x    frame=18037 fps=296 q=-0.0 size=N/A time=00:12:32.29 bitrate=N/A speed=12.4x    frame=18211 fps=296 q=-0.0 size=N/A time=00:12:39.55 bitrate=N/A speed=12.4x    frame=18381 fps=297 q=-0.0 size=N/A time=00:12:46.64 bitrate=N/A speed=12.4x    frame=18574 fps=297 q=-0.0 size=N/A time=00:12:54.69 bitrate=N/A speed=12.4x    frame=18720 fps=297 q=-0.0 size=N/A time=00:13:00.78 bitrate=N/A speed=12.4x    frame=18903 fps=298 q=-0.0 size=N/A time=00:13:08.41 bitrate=N/A speed=12.4x    frame=19092 fps=298 q=-0.0 size=N/A time=00:13:16.29 bitrate=N/A speed=12.4x    frame=19276 fps=299 q=-0.0 size=N/A time=00:13:23.96 bitrate=N/A speed=12.5x    frame=19458 fps=299 q=-0.0 size=N/A time=00:13:31.56 bitrate=N/A speed=12.5x    frame=19641 fps=300 q=-0.0 size=N/A time=00:13:39.19 bitrate=N/A speed=12.5x    frame=19823 fps=300 q=-0.0 size=N/A time=00:13:46.78 bitrate=N/A speed=12.5x    frame=20002 fps=300 q=-0.0 size=N/A time=00:13:54.25 bitrate=N/A speed=12.5x    frame=20157 fps=300 q=-0.0 size=N/A time=00:14:00.71 bitrate=N/A speed=12.5x    frame=20330 fps=301 q=-0.0 size=N/A time=00:14:07.93 bitrate=N/A speed=12.5x    frame=20512 fps=301 q=-0.0 size=N/A time=00:14:15.52 bitrate=N/A speed=12.6x    frame=20664 fps=301 q=-0.0 size=N/A time=00:14:21.86 bitrate=N/A speed=12.6x    frame=20829 fps=301 q=-0.0 size=N/A time=00:14:28.74 bitrate=N/A speed=12.6x    frame=20981 fps=301 q=-0.0 size=N/A time=00:14:35.08 bitrate=N/A speed=12.6x    frame=21147 fps=301 q=-0.0 size=N/A time=00:14:42.00 bitrate=N/A speed=12.6x    frame=21333 fps=302 q=-0.0 size=N/A time=00:14:49.76 bitrate=N/A speed=12.6x    frame=21502 fps=302 q=-0.0 size=N/A time=00:14:56.81 bitrate=N/A speed=12.6x    frame=21659 fps=302 q=-0.0 size=N/A time=00:15:03.36 bitrate=N/A speed=12.6x    frame=21840 fps=302 q=-0.0 size=N/A time=00:15:10.91 bitrate=N/A speed=12.6x    frame=22011 fps=303 q=-0.0 size=N/A time=00:15:18.04 bitrate=N/A speed=12.6x    frame=22195 fps=303 q=-0.0 size=N/A time=00:15:25.71 bitrate=N/A speed=12.6x    frame=22351 fps=303 q=-0.0 size=N/A time=00:15:32.22 bitrate=N/A speed=12.6x    frame=22529 fps=303 q=-0.0 size=N/A time=00:15:39.64 bitrate=N/A speed=12.6x    frame=22699 fps=303 q=-0.0 size=N/A time=00:15:46.73 bitrate=N/A speed=12.7x    frame=22860 fps=303 q=-0.0 size=N/A time=00:15:53.45 bitrate=N/A speed=12.7x    frame=23035 fps=304 q=-0.0 size=N/A time=00:16:00.75 bitrate=N/A speed=12.7x    frame=23228 fps=304 q=-0.0 size=N/A time=00:16:08.80 bitrate=N/A speed=12.7x    frame=23370 fps=304 q=-0.0 size=N/A time=00:16:14.72 bitrate=N/A speed=12.7x    frame=23547 fps=304 q=-0.0 size=N/A time=00:16:22.10 bitrate=N/A speed=12.7x    frame=23739 fps=305 q=-0.0 size=N/A time=00:16:30.11 bitrate=N/A speed=12.7x    frame=23928 fps=305 q=-0.0 size=N/A time=00:16:37.99 bitrate=N/A speed=12.7x    frame=24112 fps=305 q=-0.0 size=N/A time=00:16:45.67 bitrate=N/A speed=12.7x    frame=24284 fps=306 q=-0.0 size=N/A time=00:16:52.84 bitrate=N/A speed=12.7x    frame=24452 fps=306 q=-0.0 size=N/A time=00:16:59.85 bitrate=N/A speed=12.8x    frame=24622 fps=306 q=-0.0 size=N/A time=00:17:06.94 bitrate=N/A speed=12.8x    frame=24801 fps=306 q=-0.0 size=N/A time=00:17:14.40 bitrate=N/A speed=12.8x    frame=24983 fps=306 q=-0.0 size=N/A time=00:17:21.99 bitrate=N/A speed=12.8x    frame=25140 fps=306 q=-0.0 size=N/A time=00:17:28.54 bitrate=N/A speed=12.8x    frame=25309 fps=307 q=-0.0 size=N/A time=00:17:35.59 bitrate=N/A speed=12.8x    frame=25485 fps=307 q=-0.0 size=N/A time=00:17:42.93 bitrate=N/A speed=12.8x    frame=25648 fps=307 q=-0.0 size=N/A time=00:17:49.73 bitrate=N/A speed=12.8x    frame=25819 fps=307 q=-0.0 size=N/A time=00:17:56.86 bitrate=N/A speed=12.8x    frame=25999 fps=307 q=-0.0 size=N/A time=00:18:04.37 bitrate=N/A speed=12.8x    frame=26181 fps=307 q=-0.0 size=N/A time=00:18:11.96 bitrate=N/A speed=12.8x    frame=26357 fps=308 q=-0.0 size=N/A time=00:18:19.30 bitrate=N/A speed=12.8x    frame=26541 fps=308 q=-0.0 size=N/A time=00:18:26.98 bitrate=N/A speed=12.8x    frame=26735 fps=308 q=-0.0 size=N/A time=00:18:35.07 bitrate=N/A speed=12.9x    frame=26911 fps=309 q=-0.0 size=N/A time=00:18:42.41 bitrate=N/A speed=12.9x    frame=27037 fps=308 q=-0.0 size=N/A time=00:18:47.66 bitrate=N/A speed=12.9x    frame=27156 fps=308 q=-0.0 size=N/A time=00:18:52.63 bitrate=N/A speed=12.8x    frame=27305 fps=308 q=-0.0 size=N/A time=00:18:58.84 bitrate=N/A speed=12.8x    frame=27477 fps=308 q=-0.0 size=N/A time=00:19:06.01 bitrate=N/A speed=12.8x    frame=27652 fps=308 q=-0.0 size=N/A time=00:19:13.31 bitrate=N/A speed=12.8x    frame=27837 fps=308 q=-0.0 size=N/A time=00:19:21.03 bitrate=N/A speed=12.9x    frame=27995 fps=308 q=-0.0 size=N/A time=00:19:27.62 bitrate=N/A speed=12.9x    frame=28190 fps=309 q=-0.0 size=N/A time=00:19:35.75 bitrate=N/A speed=12.9x    frame=28374 fps=309 q=-0.0 size=N/A time=00:19:43.43 bitrate=N/A speed=12.9x    frame=28558 fps=309 q=-0.0 size=N/A time=00:19:51.10 bitrate=N/A speed=12.9x    frame=28725 fps=309 q=-0.0 size=N/A time=00:19:58.07 bitrate=N/A speed=12.9x    frame=28897 fps=309 q=-0.0 size=N/A time=00:20:05.24 bitrate=N/A speed=12.9x    frame=29061 fps=309 q=-0.0 size=N/A time=00:20:12.08 bitrate=N/A speed=12.9x    frame=29238 fps=310 q=-0.0 size=N/A time=00:20:19.46 bitrate=N/A speed=12.9x    frame=29369 fps=309 q=-0.0 size=N/A time=00:20:24.93 bitrate=N/A speed=12.9x    frame=29541 fps=309 q=-0.0 size=N/A time=00:20:32.10 bitrate=N/A speed=12.9x    frame=29711 fps=310 q=-0.0 size=N/A time=00:20:39.19 bitrate=N/A speed=12.9x    frame=29881 fps=310 q=-0.0 size=N/A time=00:20:46.28 bitrate=N/A speed=12.9x    frame=30044 fps=310 q=-0.0 size=N/A time=00:20:53.08 bitrate=N/A speed=12.9x    frame=30217 fps=310 q=-0.0 size=N/A time=00:21:00.30 bitrate=N/A speed=12.9x    frame=30384 fps=310 q=-0.0 size=N/A time=00:21:07.26 bitrate=N/A speed=12.9x    frame=30581 fps=310 q=-0.0 size=N/A time=00:21:15.48 bitrate=N/A speed=12.9x    frame=30753 fps=310 q=-0.0 size=N/A time=00:21:22.65 bitrate=N/A speed=12.9x    frame=30943 fps=311 q=-0.0 size=N/A time=00:21:30.58 bitrate=N/A speed=  13x    frame=31115 fps=311 q=-0.0 size=N/A time=00:21:37.75 bitrate=N/A speed=  13x    frame=31283 fps=311 q=-0.0 size=N/A time=00:21:44.76 bitrate=N/A speed=  13x    frame=31466 fps=311 q=-0.0 size=N/A time=00:21:52.39 bitrate=N/A speed=  13x    frame=31614 fps=311 q=-0.0 size=N/A time=00:21:58.56 bitrate=N/A speed=  13x    frame=31782 fps=311 q=-0.0 size=N/A time=00:22:05.57 bitrate=N/A speed=  13x    frame=31956 fps=311 q=-0.0 size=N/A time=00:22:12.83 bitrate=N/A speed=  13x    frame=32139 fps=311 q=-0.0 size=N/A time=00:22:20.46 bitrate=N/A speed=  13x    frame=32337 fps=312 q=-0.0 size=N/A time=00:22:28.72 bitrate=N/A speed=  13x    frame=32524 fps=312 q=-0.0 size=N/A time=00:22:36.52 bitrate=N/A speed=  13x    frame=32674 fps=312 q=-0.0 size=N/A time=00:22:42.77 bitrate=N/A speed=  13x    frame=32836 fps=312 q=-0.0 size=N/A time=00:22:49.53 bitrate=N/A speed=  13x    frame=32997 fps=312 q=-0.0 size=N/A time=00:22:56.24 bitrate=N/A speed=  13x    frame=33179 fps=312 q=-0.0 size=N/A time=00:23:03.84 bitrate=N/A speed=  13x    frame=33363 fps=312 q=-0.0 size=N/A time=00:23:11.51 bitrate=N/A speed=  13x    frame=33523 fps=312 q=-0.0 size=N/A time=00:23:18.18 bitrate=N/A speed=  13x    frame=33650 fps=312 q=-0.0 size=N/A time=00:23:23.48 bitrate=N/A speed=  13x    frame=33790 fps=312 q=-0.0 size=N/A time=00:23:29.32 bitrate=N/A speed=  13x    frame=33896 fps=311 q=-0.0 size=N/A time=00:23:33.74 bitrate=N/A speed=  13x    frame=34060 fps=311 q=-0.0 size=N/A time=00:23:40.58 bitrate=N/A speed=  13x    frame=34213 fps=311 q=-0.0 size=N/A time=00:23:46.96 bitrate=N/A speed=  13x    frame=34340 fps=311 q=-0.0 size=N/A time=00:23:52.26 bitrate=N/A speed=  13x    frame=34458 fps=311 q=-0.0 size=N/A time=00:23:57.18 bitrate=N/A speed=  13x    frame=34640 fps=311 q=-0.0 size=N/A time=00:24:04.77 bitrate=N/A speed=  13x    [Parsed_psnr_16 @ 0000023b22a37fc0] PSNR y:48.945988 u:50.323051 v:50.373264 average:49.364992 min:37.999472 max:inf
[out#0/null @ 0000023b1b428a00] video:14903KiB audio:271276KiB subtitle:0KiB other streams:0KiB global headers:0KiB muxing overhead: unknown
frame=34683 fps=311 q=-0.0 Lsize=N/A time=00:24:06.57 bitrate=N/A speed=  13x    
